<svg width="75" height="107" viewBox="0 0 75 107" fill="none" xmlns="http://www.w3.org/2000/svg">
<path d="M34.8 79.7V88.8C34.8 98.4 27 106.2 17.4 106.2C7.79999 106.2 0 98.4 0 88.8V79.7H11.3V88.8C11.3 91.9 13.6 94.4 16.5 94.9H17.4C17.7 94.9 18 94.9 18.3 94.9C18.8 94.9 19.3 94.7 19.8 94.5C20.5 94.2 21.2 93.7 21.8 93.2C22.9 92.1 23.6 90.5 23.6 88.9V79.8H34.9L34.8 79.7Z" fill="#231F20"/>
<path d="M28.1 13L27.3 13.3C27.1 13.3 27 13.3 27 13.4L26.8 13.5C26.5 13.6 26.3 13.7 26.1 13.8C25.6 14 25.3 14.2 24.9 14.4C24.7 14.5 24.5 14.6 24.4 14.7L23.6 15.2C23.5 15.2 23.4 15.3 23.3 15.4C22.9 15.7 22.6 15.9 22.4 16H22.2C22.1 16.2 22 16.3 21.9 16.3C21.4 16.6 21.2 16.8 20.9 17.1C20.5 17.4 20.3 17.6 20 17.8C20 17.8 19.8 18 19.6 18.1L19 18.6L18.6 19C18.3 19.3 18.1 19.6 17.8 19.8C17.7 19.9 17.4 20.3 17.4 20.3L17.2 20.5C16.9 20.8 16.7 21.1 16.4 21.4L16.2 21.7C16.2 21.7 16.2 21.7 16.1 21.8C16 21.9 15.9 22.1 15.8 22.2C15.6 22.4 15.5 22.5 15.5 22.7C15.5 22.7 15.1 23.3 15 23.4C14.9 23.6 14.8 23.8 14.7 24C14.7 24.1 14.5 24.6 14.5 24.6C14.1 25.4 13.8 26.2 13.4 27.1V27.3C13.2 27.5 13.2 27.6 13.1 27.8C12.9 28.4 12.7 29 12.5 29.5C12.5 29.5 12.5 29.5 12.5 29.6C12.5 29.7 12.5 29.9 12.4 30C12.3 30.4 12.2 30.8 12.1 31.3C12.1 31.5 12.1 31.6 12.1 31.8C11.9 32.7 11.8 33.6 11.7 34.7C11.7 35.4 11.7 36.1 11.7 36.9V74.3H0.400024V36.9C0.400024 20.8 10.6 7.1 24.8 1.8C25.1 1.7 25.4 1.6 25.6 1.5L28.5 12.5L28.1 13Z" fill="#231F20"/>
<path d="M74.0999 43.8C74.0999 44.1 73.9999 44.4 73.8999 44.7L62.8999 41.8L62.9999 41C63.1999 39.8 63.2999 38.6 63.2999 37.4C63.2999 31.6 61.3999 26.2 58.0999 21.8C57.7999 21.5 57.5999 21.1 57.2999 20.8C57.1999 20.7 57.0999 20.5 56.8999 20.4C56.7999 20.2 56.5999 20.1 56.4999 19.9C56.3999 19.7 56.1999 19.6 56.0999 19.4C55.9999 19.2 55.7999 19.1 55.6999 19C55.5999 18.9 55.3999 18.7 55.2999 18.6C55.0999 18.5 54.9999 18.3 54.7999 18.2C54.5999 18.1 54.4999 17.9 54.2999 17.8C54.0999 17.7 53.9999 17.5 53.7999 17.4C53.5999 17.3 53.4999 17.1 53.2999 17C48.8999 13.5 43.2999 11.4 37.1999 11.4C31.0999 11.4 35.9999 11.4 35.2999 11.4C34.7999 11.4 34.3999 11.4 33.9999 11.5H33.1999L30.2999 0.499988C30.5999 0.499988 30.8999 0.399988 31.1999 0.299988C33.1999 -1.2219e-05 35.1999 -0.200012 37.1999 -0.200012C39.1999 -0.200012 38.3999 -0.200012 38.9999 -0.200012C48.2999 0.199988 56.9999 4.09999 63.5999 10.7C70.1999 17.3 74.0999 26.1 74.4999 35.3C74.5999 38.1 74.4999 40.9 73.9999 43.6L74.0999 43.8Z" fill="#231F20"/>
<path d="M72.5 50C72.5 50.3 72.3 50.6 72.2 50.8C70.5 55.3 67.8 59.5 64.4 63.1C57.4 70.5 47.5 74.7 37.4 74.7H23.6V63.4H37.4C37.8 63.4 38.2 63.4 38.6 63.4C38.7 63.4 38.8 63.4 38.9 63.4C39.1 63.4 39.2 63.4 39.4 63.4C39.6 63.4 39.8 63.4 40 63.4C40 63.4 40 63.4 40.1 63.4C40.3 63.4 40.4 63.4 40.6 63.4C40.6 63.4 40.7 63.4 40.8 63.4C40.9 63.4 41.1 63.4 41.2 63.4C41.3 63.4 41.5 63.4 41.6 63.4C41.8 63.4 42 63.4 42.1 63.4C42.3 63.4 42.5 63.4 42.7 63.3C43.5 63.1 44.2 62.9 45 62.7C45.4 62.6 45.8 62.5 46.1 62.3C46.3 62.3 46.5 62.2 46.7 62.1C46.9 62.1 47.1 62 47.3 61.9C47.4 61.9 47.6 61.8 47.7 61.7C48 61.6 48.2 61.5 48.5 61.4C48.6 61.4 48.8 61.3 48.9 61.2C49.3 61 49.6 60.8 49.9 60.7C50.1 60.7 50.2 60.5 50.4 60.4C50.6 60.4 50.7 60.2 50.9 60.1C52.2 59.3 53.5 58.3 54.7 57.2L54.9 57C55.6 56.4 56.3 55.7 56.9 55C57.5 54.3 58.1 53.6 58.6 52.8C59.6 51.4 60.4 50 61.1 48.5L61.6 47.4L62.3 47.6L72.5 50.4V50Z" fill="#231F20"/>
<path d="M37.3 23.7C29.7 23.7 23.5 29.9 23.5 37.5V51.3H37.3C44.9 51.3 51.1 45.1 51.1 37.5C51.1 29.9 44.9 23.7 37.3 23.7ZM37.3 42.3C34.7 42.3 32.5 40.2 32.5 37.5C32.5 34.8 34.6 32.7 37.3 32.7C40 32.7 42.1 34.9 42.1 37.5C42.1 40.1 40 42.3 37.3 42.3Z" fill="#231F20"/>
</svg>
