<svg xmlns="http://www.w3.org/2000/svg" width="986" height="1130" viewBox="0 0 986 1130">
  <g fill="#ffffff" stroke="none">
    <path d="M 437 721 L 437 843 L 438 844 L 439 844 L 440 845 L 441 845 L 442 846 L 443 846 L 444 847 L 445 847 L 447 849 L 448 849 L 449 850 L 450 850 L 451 851 L 452 851 L 453 852 L 454 852 L 455 853 L 456 853 L 457 854 L 458 854 L 461 856 L 463 856 L 466 858 L 468 858 L 469 859 L 471 859 L 472 860 L 473 860 L 474 861 L 476 861 L 477 862 L 480 862 L 481 863 L 484 863 L 485 864 L 487 864 L 488 865 L 492 865 L 493 866 L 497 866 L 498 867 L 502 867 L 503 868 L 517 868 L 518 869 L 529 869 L 530 868 L 540 868 L 541 867 L 545 867 L 546 866 L 549 866 L 550 865 L 553 865 L 554 864 L 557 864 L 558 863 L 561 863 L 562 862 L 565 862 L 566 861 L 568 861 L 569 860 L 571 860 L 574 858 L 576 858 L 577 857 L 578 857 L 579 856 L 580 856 L 581 855 L 582 855 L 585 853 L 587 853 L 588 852 L 589 852 L 590 851 L 591 851 L 593 849 L 594 849 L 595 848 L 596 848 L 598 846 L 599 846 L 600 845 L 601 845 L 603 843 L 604 843 L 606 841 L 607 841 L 608 840 L 609 840 L 611 838 L 612 838 L 613 837 L 614 837 L 615 836 L 616 836 L 618 834 L 619 834 L 620 833 L 621 833 L 622 832 L 623 832 L 625 830 L 626 830 L 627 829 L 628 829 L 630 827 L 631 827 L 632 826 L 633 826 L 634 825 L 635 825 L 637 823 L 638 823 L 639 822 L 640 822 L 642 820 L 643 820 L 643 818 L 641 818 L 640 817 L 634 817 L 633 816 L 630 816 L 629 815 L 624 815 L 623 814 L 621 814 L 620 813 L 618 813 L 617 812 L 614 812 L 611 810 L 609 810 L 608 809 L 606 809 L 605 808 L 604 808 L 601 806 L 599 806 L 598 805 L 597 805 L 594 803 L 592 803 L 591 802 L 590 802 L 589 801 L 588 801 L 587 800 L 586 800 L 585 799 L 584 799 L 583 798 L 582 798 L 581 797 L 580 797 L 579 796 L 578 796 L 577 795 L 576 795 L 573 793 L 571 793 L 569 791 L 568 791 L 567 790 L 566 790 L 565 789 L 564 789 L 563 788 L 562 788 L 561 787 L 560 787 L 559 786 L 558 786 L 557 785 L 556 785 L 555 784 L 554 784 L 553 783 L 552 783 L 551 782 L 550 782 L 549 781 L 548 781 L 546 779 L 544 779 L 542 777 L 541 777 L 540 776 L 539 776 L 538 775 L 537 775 L 536 774 L 535 774 L 534 773 L 533 773 L 531 771 L 530 771 L 529 770 L 528 770 L 527 769 L 526 769 L 525 768 L 524 768 L 523 767 L 522 767 L 521 766 L 520 766 L 519 765 L 518 765 L 517 764 L 516 764 L 515 763 L 514 763 L 512 761 L 511 761 L 510 760 L 509 760 L 508 759 L 507 759 L 506 758 L 505 758 L 504 757 L 503 757 L 501 755 L 500 755 L 499 754 L 498 754 L 497 753 L 496 753 L 495 752 L 494 752 L 492 750 L 491 750 L 490 749 L 489 749 L 488 748 L 487 748 L 485 746 L 484 746 L 483 745 L 482 745 L 481 744 L 480 744 L 479 743 L 478 743 L 477 742 L 476 742 L 475 741 L 474 741 L 473 740 L 472 740 L 471 739 L 470 739 L 468 737 L 467 737 L 466 736 L 465 736 L 464 735 L 463 735 L 462 734 L 461 734 L 460 733 L 459 733 L 457 731 L 456 731 L 455 730 L 454 730 L 453 729 L 452 729 L 451 728 L 450 728 L 449 727 L 448 727 L 446 725 L 445 725 L 444 724 L 443 724 L 441 722 L 440 722 L 439 721 Z"/> <path d="M 437 556 L 437 683 L 453 691 L 455 693 L 457 693 L 459 695 L 468 699 L 470 701 L 486 709 L 488 711 L 490 711 L 492 713 L 509 721 L 511 723 L 513 723 L 515 725 L 531 733 L 533 735 L 535 735 L 537 737 L 541 738 L 543 740 L 554 745 L 556 747 L 558 747 L 560 749 L 565 751 L 567 753 L 593 766 L 595 768 L 597 768 L 599 770 L 601 770 L 621 780 L 626 781 L 632 784 L 635 784 L 638 786 L 642 786 L 643 787 L 647 787 L 648 788 L 652 788 L 653 789 L 660 789 L 661 790 L 685 790 L 686 789 L 692 789 L 693 788 L 696 788 L 697 787 L 701 787 L 705 785 L 708 785 L 709 784 L 711 784 L 716 781 L 721 780 L 729 776 L 736 771 L 743 768 L 745 766 L 752 763 L 757 759 L 764 756 L 766 754 L 771 752 L 773 750 L 780 747 L 783 744 L 789 741 L 789 739 L 787 738 L 784 738 L 783 737 L 776 736 L 773 734 L 770 734 L 763 730 L 761 730 L 735 717 L 733 715 L 731 715 L 727 713 L 725 711 L 720 709 L 718 707 L 707 702 L 705 700 L 703 700 L 701 698 L 690 693 L 688 691 L 686 691 L 684 689 L 675 685 L 673 683 L 668 681 L 666 679 L 662 678 L 660 676 L 653 673 L 651 671 L 646 669 L 644 667 L 642 667 L 640 665 L 636 664 L 634 662 L 627 659 L 625 657 L 618 654 L 616 652 L 614 652 L 612 650 L 607 648 L 600 643 L 596 642 L 594 640 L 581 634 L 579 632 L 574 630 L 572 628 L 557 621 L 555 619 L 546 615 L 544 613 L 531 607 L 529 605 L 524 603 L 522 601 L 509 595 L 507 593 L 502 591 L 500 589 L 474 576 L 472 574 L 461 569 L 459 567 L 457 567 L 455 565 L 446 561 L 439 556 Z"/> <path d="M 756 347 L 752 350 L 751 350 L 750 351 L 745 353 L 743 355 L 740 356 L 738 358 L 733 360 L 731 362 L 724 365 L 722 367 L 719 368 L 717 370 L 712 372 L 710 374 L 705 376 L 703 378 L 698 380 L 696 382 L 695 382 L 694 383 L 689 385 L 687 387 L 680 390 L 678 392 L 675 393 L 673 395 L 670 396 L 668 398 L 663 400 L 661 402 L 659 402 L 657 404 L 654 405 L 652 407 L 651 407 L 642 412 L 642 434 L 641 435 L 641 463 L 642 464 L 642 474 L 641 475 L 641 487 L 642 488 L 642 522 L 641 523 L 641 618 L 644 621 L 647 622 L 652 626 L 657 628 L 662 632 L 665 633 L 667 635 L 670 636 L 672 638 L 675 639 L 677 641 L 686 645 L 688 647 L 691 648 L 693 650 L 696 651 L 698 653 L 703 655 L 705 657 L 708 658 L 710 660 L 713 661 L 715 663 L 722 666 L 724 668 L 727 669 L 729 671 L 732 672 L 734 674 L 737 675 L 739 677 L 744 679 L 746 681 L 749 682 L 751 684 L 754 685 L 756 687 L 758 687 L 758 347 Z"/> <path d="M 913 260 L 911 260 L 907 263 L 898 267 L 891 272 L 889 272 L 886 275 L 879 278 L 877 280 L 872 282 L 870 284 L 863 287 L 861 289 L 856 291 L 849 296 L 847 296 L 845 298 L 842 299 L 835 304 L 830 306 L 823 311 L 821 311 L 819 313 L 814 315 L 807 320 L 805 320 L 802 323 L 795 326 L 793 328 L 793 343 L 794 344 L 794 707 L 795 708 L 800 708 L 801 709 L 811 709 L 812 710 L 818 710 L 819 709 L 826 709 L 827 708 L 831 708 L 832 707 L 835 707 L 838 705 L 843 704 L 863 693 L 866 690 L 871 687 L 885 673 L 885 672 L 892 664 L 895 658 L 897 656 L 904 642 L 904 640 L 906 637 L 907 631 L 909 627 L 909 624 L 910 623 L 910 620 L 911 619 L 911 615 L 912 614 L 912 608 L 913 607 Z"/> <path d="M 261 212 L 262 215 L 261 223 L 261 990 L 262 991 L 262 1004 L 265 1004 L 387 934 L 403 926 L 403 290 L 401 290 L 364 268 L 362 268 L 333 251 L 331 251 L 319 243 L 265 213 Z"/> <path d="M 210 188 L 183 191 L 168 197 L 146 212 L 130 229 L 114 253 L 106 271 L 99 296 L 97 315 L 97 1101 L 100 1101 L 141 1076 L 205 1040 L 219 1031 L 225 1025 L 225 192 Z"/> <path d="M 240 157 L 240 160 L 242 160 L 244 162 L 253 166 L 255 168 L 262 171 L 264 173 L 278 180 L 287 186 L 296 190 L 298 192 L 307 196 L 316 202 L 318 202 L 320 204 L 325 206 L 327 208 L 329 208 L 336 213 L 345 217 L 347 219 L 349 219 L 351 221 L 356 223 L 365 229 L 394 244 L 408 253 L 417 257 L 419 259 L 421 259 L 423 261 L 428 263 L 435 268 L 437 268 L 449 276 L 460 281 L 462 283 L 469 286 L 471 288 L 478 291 L 489 298 L 491 298 L 498 303 L 507 307 L 509 309 L 514 311 L 523 317 L 534 322 L 543 328 L 545 328 L 547 330 L 561 337 L 570 343 L 572 343 L 574 345 L 579 347 L 586 352 L 588 352 L 597 358 L 622 371 L 634 379 L 636 379 L 642 376 L 644 374 L 653 370 L 660 365 L 669 361 L 683 352 L 690 349 L 704 340 L 711 337 L 718 332 L 723 330 L 725 328 L 739 321 L 751 313 L 756 311 L 756 309 L 737 299 L 735 297 L 732 296 L 725 291 L 716 287 L 707 281 L 705 281 L 691 272 L 677 265 L 665 257 L 654 252 L 644 245 L 642 245 L 640 243 L 626 236 L 624 234 L 605 224 L 596 218 L 594 218 L 589 214 L 566 202 L 561 198 L 545 190 L 538 185 L 524 178 L 522 176 L 503 166 L 496 161 L 494 161 L 475 149 L 461 142 L 447 133 L 440 130 L 433 125 L 424 121 L 422 119 L 403 109 L 401 109 L 398 107 L 396 107 L 389 104 L 386 104 L 385 103 L 375 103 L 374 102 L 362 102 L 361 103 L 352 103 L 351 104 L 347 104 L 343 106 L 340 106 L 339 107 L 328 110 L 314 117 L 312 117 L 306 121 L 304 121 L 302 123 L 295 126 L 290 130 L 283 133 L 274 139 L 260 146 L 253 151 L 246 154 L 242 157 Z"/> <path d="M 403 71 L 403 73 L 424 84 L 431 89 L 440 93 L 442 95 L 463 106 L 470 111 L 472 111 L 474 113 L 484 118 L 491 123 L 493 123 L 495 125 L 505 130 L 512 135 L 530 144 L 532 146 L 537 148 L 549 156 L 551 156 L 553 158 L 574 169 L 581 174 L 595 181 L 602 186 L 609 189 L 618 195 L 641 207 L 643 209 L 648 211 L 650 213 L 655 215 L 657 217 L 676 227 L 683 232 L 685 232 L 687 234 L 708 245 L 722 254 L 736 261 L 738 263 L 752 270 L 754 272 L 759 274 L 766 279 L 775 283 L 777 285 L 782 287 L 788 291 L 792 291 L 798 287 L 803 285 L 805 283 L 807 283 L 814 278 L 821 275 L 835 266 L 846 261 L 858 253 L 867 249 L 874 244 L 879 242 L 881 240 L 883 240 L 885 238 L 901 229 L 901 227 L 898 226 L 891 221 L 887 220 L 885 218 L 878 215 L 876 213 L 871 211 L 869 209 L 850 199 L 843 194 L 818 181 L 816 179 L 797 169 L 785 161 L 769 153 L 764 149 L 757 146 L 755 144 L 750 142 L 741 136 L 734 133 L 727 128 L 713 121 L 711 119 L 706 117 L 704 115 L 685 105 L 678 100 L 669 96 L 657 88 L 650 85 L 648 83 L 643 81 L 636 76 L 622 69 L 615 64 L 606 60 L 594 52 L 592 52 L 586 48 L 584 48 L 575 43 L 570 42 L 564 39 L 560 39 L 556 37 L 553 37 L 552 36 L 549 36 L 544 34 L 529 33 L 528 32 L 512 32 L 511 33 L 494 34 L 493 35 L 489 35 L 484 37 L 480 37 L 479 38 L 477 38 L 473 40 L 470 40 L 469 41 L 461 43 L 458 45 L 453 46 L 448 49 L 444 50 L 442 52 L 440 52 L 426 59 L 424 61 L 422 61 L 420 63 L 411 67 L 409 69 L 407 69 Z"/>
  </g>
</svg>
